<svg fill="#000000" xmlns="http://www.w3.org/2000/svg"  viewBox="0 0 50 50" width="50px" height="50px"><path d="M 11 3 A 1.0001 1.0001 0 0 0 10.199219 4.5996094 L 13 8.3339844 L 13 11.121094 L 12.941406 11.042969 C 8.1182437 14.693755 5 20.489094 5 27 C 5 33.24868 7.876373 38.833799 12.373047 42.501953 L 10.199219 45.400391 A 1.0001 1.0001 0 0 0 11 47 L 39 47 A 1.0001 1.0001 0 0 0 39.767578 46.640625 L 44.767578 40.640625 A 1.0001 1.0001 0 0 0 44 39 L 40.984375 39 C 43.498941 35.655199 45 31.501847 45 27 C 45 15.966513 36.033487 7 25 7 C 24.664345 7 24.331455 7.0092307 24 7.0253906 L 24 4 A 1.0001 1.0001 0 0 0 23 3 L 11 3 z M 13 5 L 22 5 L 22 40 A 1.0001 1.0001 0 0 0 23 41 L 41.865234 41 L 38.53125 45 L 13 45 L 14.800781 42.599609 A 1.0001 1.0001 0 0 0 15 42 L 15 8 A 1.0001 1.0001 0 0 0 14.800781 7.4003906 L 13 5 z M 25 9 C 34.952513 9 43 17.047487 43 27 C 43 31.619944 41.254162 35.813674 38.398438 39 L 35.572266 39 C 38.89761 36.066704 41 31.776188 41 27 C 41 18.17552 33.82448 11 25 11 C 24.664431 11 24.330958 11.01284 24 11.033203 L 24 9.0527344 C 24.333118 9.0343278 24.661863 9 25 9 z M 25 13 C 32.74352 13 39 19.25648 39 27 C 39 32.005669 36.381193 36.384144 32.441406 38.861328 A 1.0001 1.0001 0 0 0 32.439453 38.863281 C 32.365478 38.909978 32.287057 38.954614 32.210938 39 L 24 39 L 24 13.037109 C 24.330581 13.013829 24.663067 13 25 13 z M 13 13.591797 L 13 16.4375 C 10.517264 19.255913 9 22.952948 9 27 C 9 31.047052 10.517389 34.743336 13 37.5625 L 13 40.414062 C 9.3179233 37.118989 7 32.336628 7 27 C 7 21.664307 9.3197697 16.887261 13 13.591797 z M 13 19.806641 L 13 34.193359 C 11.736316 32.091026 11 29.636853 11 27 C 11 24.363147 11.736328 21.90889 13 19.806641 z"/></svg>