<svg fill="#000000" xmlns="http://www.w3.org/2000/svg"  viewBox="0 0 100 100" width="100px" height="100px"><path d="M 52.958984 15.003906 C 52.141585 14.983102 51.343341 15.111099 50.607422 15.378906 C 48.644969 16.093056 47.109848 17.872845 47.001953 20.203125 C 46.966863 20.962911 47.081033 21.770608 47.357422 22.605469 C 47.359822 22.612769 47.358928 22.611971 47.361328 22.619141 C 46.246622 22.322312 45.14173 22.566051 44.316406 23.109375 C 43.432069 23.691551 42.780292 24.519549 42.322266 25.341797 C 41.056634 27.612267 40.746617 29.731555 40.667969 31.330078 C 40.628649 32.129339 40.644283 32.806076 40.626953 33.277344 C 40.609623 33.748612 40.479907 33.974546 40.591797 33.830078 A 1.0001 1.0001 0 0 0 40.503906 33.966797 C 40.412826 33.981547 40.253524 34.00119 40.003906 34 C 39.73586 33.9985 39.425316 33.982864 39.072266 34.021484 C 38.719588 34.060064 38.213913 34.145439 37.835938 34.644531 C 37.829237 34.656081 37.709104 34.862996 37.708984 34.863281 C 37.708862 34.863574 37.690057 34.910758 37.685547 34.923828 C 37.676547 34.949958 37.672912 34.960573 37.669922 34.970703 C 37.663922 34.990963 37.661323 35.001952 37.658203 35.013672 C 37.652003 35.037112 37.647395 35.059991 37.640625 35.087891 C 37.627085 35.143681 37.608671 35.217804 37.587891 35.310547 C 37.546331 35.496033 37.492161 35.755351 37.431641 36.066406 C 37.310601 36.688517 37.167372 37.515718 37.076172 38.373047 C 36.984972 39.230376 36.938971 40.107331 37.044922 40.900391 C 37.097902 41.296921 37.183271 41.677118 37.386719 42.052734 C 37.536833 42.329884 37.878976 42.531928 38.210938 42.712891 C 37.939509 42.958949 37.79383 43.245013 37.740234 43.462891 C 37.665664 43.766018 37.645874 44.056016 37.638672 44.378906 C 37.624272 45.024686 37.681502 45.78431 37.757812 46.5625 C 37.834133 47.34069 37.931376 48.130789 38.009766 48.78125 C 38.045096 49.074382 38.047752 49.145622 38.070312 49.369141 C 37.525884 49.684683 37.4607 49.978826 37.316406 50.300781 C 37.16374 50.641418 37.032844 51.032315 36.921875 51.460938 C 36.699936 52.318182 36.543132 53.280668 36.677734 54.1875 C 36.771154 54.812207 37.266689 55.220045 37.634766 55.416016 C 37.532009 56.223296 37.349073 57.124284 37.134766 58.162109 C 36.87275 59.430974 36.641064 60.778924 37.021484 62.091797 C 37.112654 62.406166 37.083731 62.441358 37.019531 62.585938 C 36.955381 62.730516 36.763194 62.977566 36.513672 63.373047 C 36.205805 63.861097 36.110729 64.285004 36.082031 64.369141 C 36.053331 64.453281 36.084131 64.457292 35.705078 64.820312 A 1.0001 1.0001 0 0 0 35.517578 65.064453 C 35.035302 65.953963 34.555219 66.843422 34.074219 67.732422 A 1.0001 1.0001 0 0 0 34.029297 67.824219 C 33.799034 68.377865 33.790747 68.878341 33.763672 69.300781 C 33.736602 69.723221 33.697722 70.07018 33.642578 70.226562 A 1.0001 1.0001 0 0 0 33.642578 70.228516 C 33.465824 70.730124 32.913889 71.502013 32.519531 72.441406 C 32.322352 72.911103 32.163581 73.452604 32.197266 74.058594 C 32.219816 74.464222 32.486096 74.854278 32.705078 75.248047 C 32.700578 75.278597 32.695374 75.306887 32.683594 75.367188 C 32.650844 75.535115 32.592414 75.790951 32.517578 76.091797 C 32.3679 76.693489 32.153172 77.488693 31.933594 78.302734 C 31.714015 79.116776 31.489866 79.95019 31.316406 80.648438 C 31.142947 81.346684 31.008172 81.77665 30.998047 82.314453 C 30.988847 82.817305 31.058137 83.369392 31.382812 83.882812 C 31.707493 84.396235 32.319956 84.779362 32.990234 84.876953 C 33.735872 84.985727 34.70946 85.040682 35.605469 84.970703 C 36.053473 84.935713 36.477182 84.877133 36.888672 84.730469 C 37.300161 84.583809 37.874886 84.293103 38.015625 83.574219 C 38.130132 82.987589 37.981575 82.459459 37.833984 82.101562 C 37.706833 81.793228 37.616166 81.616994 37.566406 81.494141 L 37.566406 78.740234 C 37.636066 78.537713 37.850313 77.98392 38.070312 77.429688 C 38.188038 77.133109 38.302493 76.844472 38.394531 76.595703 C 38.431521 76.595251 38.391629 76.596334 38.443359 76.597656 C 38.593389 76.601356 38.796972 76.615871 39.080078 76.550781 C 39.363184 76.485691 39.746033 76.277419 39.966797 75.953125 C 40.456106 75.236092 40.540829 74.474748 40.667969 73.728516 C 40.795108 72.982284 40.920273 72.248671 41.140625 71.71875 C 41.440624 70.999165 41.73953 70.209129 41.970703 69.40625 C 42.093632 68.984146 42.010809 68.798917 41.974609 68.623047 C 41.938419 68.447177 41.896089 68.299069 41.865234 68.169922 C 41.809394 67.936168 41.848316 67.85228 41.785156 67.986328 C 41.847096 67.898458 41.907396 67.81095 41.970703 67.720703 A 1.0001 1.0001 0 0 0 42.060547 67.566406 C 42.277663 67.09643 42.363436 66.782522 42.367188 66.685547 C 42.850988 66.333511 43.19518 66.021353 43.375 65.660156 C 43.552277 65.304067 43.603327 65.106322 43.761719 64.773438 C 43.793419 64.741618 43.830389 64.697108 43.921875 64.648438 C 44.15761 64.523028 44.574026 64.35348 44.867188 63.802734 C 45.139359 63.290973 45.14763 62.814024 45.160156 62.462891 C 45.172686 62.111758 45.185482 61.860869 45.226562 61.720703 C 45.379568 61.1985 45.759891 60.08441 46.173828 59.011719 C 46.566721 57.993563 47.015611 57.022252 47.242188 56.646484 C 47.341567 56.782621 47.403972 56.994858 47.554688 57.123047 C 47.975932 57.481333 48.434564 57.619081 49.146484 57.919922 C 49.211064 58.005102 49.304756 58.1381 49.417969 58.302734 C 49.653814 58.645702 49.961682 59.112685 50.271484 59.591797 C 50.891089 60.550021 51.51302 61.543138 51.662109 61.777344 C 52.12954 62.512029 52.536791 63.061931 53.210938 63.339844 C 53.697224 63.540313 54.174857 63.488917 54.671875 63.478516 C 54.707035 63.539136 54.799873 63.628801 54.8125 63.689453 C 54.83967 63.819961 54.837177 64.092864 54.748047 64.591797 A 1.0001 1.0001 0 0 0 54.732422 64.767578 L 54.732422 65.46875 C 54.732422 65.46875 54.730469 65.46875 54.730469 65.46875 C 54.586504 65.606873 54.29067 65.874719 54.150391 66.349609 C 53.847675 67.36988 54.218726 68.200478 54.222656 68.285156 C 54.261799 69.121758 54.256981 69.965758 54.482422 70.824219 C 54.487274 71.322135 54.522104 71.956961 54.662109 72.613281 C 54.774846 73.141778 54.99915 73.679077 55.375 74.158203 C 55.40081 74.681978 55.45657 75.413321 55.505859 76.210938 C 55.534089 76.667807 55.55575 77.108861 55.5625 77.443359 C 55.5656 77.599131 55.564047 77.724164 55.560547 77.814453 C 55.467937 77.962168 55.376928 78.110658 55.283203 78.259766 A 1.0001 1.0001 0 0 0 55.177734 78.480469 C 55.094874 78.733545 55.068013 78.923961 55.011719 79.228516 C 54.955429 79.53307 54.894651 79.893978 54.837891 80.253906 C 54.781131 80.613835 54.728524 80.971432 54.689453 81.265625 C 54.650383 81.559818 54.617361 81.694327 54.619141 81.980469 A 1.0001 1.0001 0 0 0 55.300781 82.923828 C 55.606571 83.026554 56.650039 83.353847 57.992188 83.351562 A 1.0001 1.0001 0 0 0 58.574219 83.162109 C 59.938294 83.425337 62.348934 84.706711 65.853516 83.617188 A 1.0001 1.0001 0 0 0 66.513672 82.949219 C 66.693927 82.347191 66.731064 81.75704 66.523438 81.224609 C 66.315776 80.692179 65.886638 80.333155 65.503906 80.128906 C 64.776423 79.740677 64.10407 79.644271 63.697266 79.482422 C 63.686799 79.461367 63.489161 79.332156 63.326172 79.167969 C 63.099328 78.939463 62.819392 78.628097 62.548828 78.308594 C 62.278264 77.989091 62.015126 77.659335 61.822266 77.392578 C 61.685712 77.203702 61.581967 76.999481 61.552734 76.958984 C 61.535804 76.859518 61.481435 76.144138 61.509766 75.417969 C 61.534946 74.772291 61.573911 74.133527 61.587891 73.574219 C 61.682201 73.456924 61.779569 73.36744 61.873047 73.140625 C 61.990502 72.855632 61.99733 72.624911 61.996094 72.380859 C 62.305179 71.609252 62.159968 70.835555 62.019531 70.337891 C 61.862955 69.783029 61.774831 69.485774 61.832031 69.230469 C 61.963398 68.644123 62.105789 67.858845 62.228516 67.304688 A 1.0001 1.0001 0 0 0 62.253906 67.089844 L 62.253906 66.044922 C 62.284696 65.951752 62.316053 65.857777 62.345703 65.767578 A 1.0001 1.0001 0 0 0 62.394531 65.455078 L 62.394531 64.167969 C 62.446391 63.960997 62.511668 63.707162 62.556641 63.363281 C 62.610781 62.949276 62.661727 62.489632 62.492188 61.945312 A 1.0001 1.0001 0 0 0 62.394531 61.728516 C 62.203366 61.410708 62.195911 61.16129 62.138672 60.722656 C 62.110052 60.503339 62.095207 60.1919 61.814453 59.820312 C 61.715772 59.689705 61.533599 59.709489 61.388672 59.625 C 60.630242 58.575164 60.293286 57.223741 59.625 55.443359 C 58.96343 53.680869 57.932261 51.577561 55.742188 49.251953 C 55.719615 49.196853 55.673343 49.089829 55.644531 48.976562 C 55.590431 48.763844 55.538432 48.484957 55.515625 48.222656 C 55.506725 48.120152 55.521284 48.066476 55.521484 47.974609 C 55.736041 48.068169 55.897006 48.182816 56.263672 48.185547 A 1.0001 1.0001 0 0 0 56.974609 47.898438 C 57.519074 47.360712 57.743338 46.707174 57.974609 45.935547 C 58.205881 45.16392 58.380665 44.278332 58.501953 43.382812 C 58.623242 42.487294 58.689453 41.587113 58.689453 40.789062 C 58.689453 39.991014 58.660053 39.334883 58.423828 38.714844 C 58.291179 38.36637 58.066338 38.197161 57.859375 37.996094 C 58.323416 38.269283 58.707972 38.522575 59.091797 38.693359 C 59.824935 39.019611 60.447107 39.382632 61.072266 39.679688 C 61.697424 39.976742 62.389263 40.252439 63.193359 40.091797 L 63.193359 40.09375 C 63.839722 39.965268 64.028811 39.715505 64.423828 39.40625 C 64.818845 39.096995 65.253496 38.708692 65.677734 38.28125 C 66.101972 37.853808 66.514004 37.39168 66.853516 36.929688 C 67.193027 36.467695 67.483399 36.045709 67.595703 35.447266 L 67.59375 35.447266 C 67.67591 35.011215 67.669716 34.611551 67.660156 34.251953 C 67.720456 34.237743 67.802628 34.218101 67.853516 34.207031 C 68.134374 34.146301 68.427373 33.928142 68.574219 33.693359 C 68.733307 33.435979 68.785669 33.077292 68.710938 32.800781 C 68.36851 31.491107 68.363457 31.12383 68.349609 30.050781 C 68.508259 29.957291 68.736437 29.823414 68.902344 29.693359 C 69.125051 29.518732 69.278606 29.259452 69.455078 29 L 75.373047 29 A 1.0001 1.0001 0 0 0 76.359375 28.166016 L 77.730469 28.166016 A 1.0001 1.0001 0 0 0 78.511719 27.789062 L 80.826172 27.789062 A 1.0001 1.0001 0 0 0 81.605469 28.164062 L 82.230469 28.164062 A 1.0001 1.0001 0 0 0 82.779297 28 L 84 28 A 1.0001 1.0001 0 0 0 85 27 L 85 26 A 1.0001 1.0001 0 0 0 84 25 L 82.779297 25 A 1.0001 1.0001 0 0 0 82.230469 24.835938 L 81.607422 24.835938 A 1.0001 1.0001 0 0 0 80.826172 25.210938 L 78.730469 25.210938 L 78.730469 24.195312 A 1.0001 1.0001 0 0 0 77.730469 23.195312 L 77.525391 23.195312 L 77.525391 22 A 1.0001 1.0001 0 0 0 76.525391 21 L 76 21 A 1.0001 1.0001 0 0 0 75 22 L 75 23 L 62.339844 23 L 62.353516 23.380859 A 1.0001 1.0001 0 0 0 61.400391 22.417969 L 61.400391 22 A 1.0001 1.0001 0 0 0 60.400391 21 L 60.033203 21 A 1.0001 1.0001 0 0 0 59.072266 21.726562 C 59.23211 21.067406 59.219048 20.399514 59.101562 19.824219 C 58.901516 18.844641 58.545159 17.964286 58.470703 17.574219 A 1.0001 1.0001 0 0 0 58.091797 16.962891 C 57.668748 16.642547 57.285863 16.492859 56.875 16.326172 C 55.897522 15.643543 54.836419 15.229748 53.78125 15.074219 C 53.506166 15.033672 53.231451 15.010841 52.958984 15.003906 z M 52.90625 17.001953 C 53.097203 17.006421 53.291288 17.022273 53.486328 17.050781 C 54.26649 17.164812 55.070228 17.47444 55.824219 18.023438 A 1.0001 1.0001 0 0 0 56.035156 18.140625 C 56.378251 18.280982 56.488827 18.350399 56.642578 18.439453 C 56.810488 19.051742 57.025945 19.661099 57.140625 20.222656 C 57.278107 20.895874 57.224075 21.336601 56.960938 21.701172 C 56.522689 21.857507 56.07006 21.999315 55.714844 22.255859 A 1.0001 1.0001 0 0 0 55.300781 23.054688 C 55.298981 23.1941 55.295479 23.286411 55.318359 23.443359 C 55.327859 23.508699 55.355337 23.605881 55.398438 23.714844 C 55.385458 23.756064 55.294118 23.817619 55.287109 23.847656 C 55.248409 24.013492 55.253572 24.106631 55.257812 24.191406 C 55.266312 24.360958 55.264311 24.436398 55.367188 24.673828 A 1.0001 1.0001 0 0 0 56.087891 25.257812 C 57.312915 25.50205 58.362797 25.114944 59.058594 24.835938 L 59.669922 24.835938 A 1.0001 1.0001 0 0 0 60.472656 24.429688 A 1.0001 1.0001 0 0 0 61.375 25 L 74.375 25 L 74.373047 27 L 69.253906 27 A 1.0001 1.0001 0 0 0 68.798828 27.109375 C 68.739148 27.139805 68.734208 27.143277 68.677734 27.154297 A 1.0001 1.0001 0 0 0 68.048828 27.5625 C 67.671917 28.102706 67.638737 28.143587 67.669922 28.119141 C 67.701102 28.094691 67.400812 28.260208 66.722656 28.720703 A 1.0001 1.0001 0 0 0 66.283203 29.548828 C 66.285503 30.912021 66.4566 31.539549 66.662109 32.429688 C 66.594659 32.445147 66.4745 32.474182 66.431641 32.482422 A 1.0001 1.0001 0 0 0 65.630859 33.609375 C 65.616659 33.511725 65.659115 33.83897 65.671875 34.146484 C 65.684635 34.453998 65.673876 34.837609 65.628906 35.076172 A 1.0001 1.0001 0 0 0 65.628906 35.078125 C 65.631706 35.063185 65.496692 35.397117 65.240234 35.746094 C 64.983777 36.09507 64.62795 36.498161 64.257812 36.871094 C 63.887676 37.244027 63.501108 37.589568 63.191406 37.832031 C 62.995281 37.985577 62.78314 38.081314 62.720703 38.121094 C 62.591561 38.121712 62.361653 38.07933 61.931641 37.875 C 61.429299 37.636304 60.755112 37.242983 59.90625 36.865234 C 59.8766 36.852044 59.32221 36.532436 58.792969 36.224609 C 58.263727 35.916783 57.714621 35.593754 57.154297 35.404297 A 1.0001 1.0001 0 0 0 57.152344 35.404297 C 56.795043 35.284035 56.386909 35.337179 56.101562 35.474609 C 55.816218 35.612038 55.624896 35.803789 55.476562 36 C 55.179896 36.392421 55.026838 36.829365 55.001953 37.326172 A 1.0001 1.0001 0 0 0 55.001953 37.328125 C 54.976343 37.852189 55.194709 38.642417 55.878906 39.007812 A 1.0001 1.0001 0 0 0 55.880859 39.007812 C 56.310029 39.236393 56.576792 39.483853 56.554688 39.425781 C 56.592957 39.526242 56.689453 40.104799 56.689453 40.789062 C 56.689453 41.473326 56.629743 42.301502 56.519531 43.115234 C 56.40932 43.928966 56.247322 44.731643 56.058594 45.361328 C 55.946939 45.733861 55.870465 45.821064 55.767578 46.019531 C 55.501794 45.889813 55.149293 45.674597 54.576172 45.861328 A 1.0001 1.0001 0 0 0 54.400391 45.939453 C 53.838259 46.25131 53.65165 46.779875 53.568359 47.195312 C 53.485069 47.610751 53.489868 48.008457 53.523438 48.394531 C 53.557007 48.780605 53.623464 49.149828 53.705078 49.470703 C 53.786688 49.791578 53.81861 50.004343 54.058594 50.357422 A 1.0001 1.0001 0 0 0 54.164062 50.488281 C 56.254492 52.667024 57.128216 54.484787 57.751953 56.146484 C 58.37569 57.808182 58.714568 59.387954 59.796875 60.857422 A 1.0001 1.0001 0 0 0 60.214844 61.183594 C 60.248303 61.486794 60.288899 61.980943 60.582031 62.558594 C 60.584946 62.579539 60.609423 62.834206 60.574219 63.103516 C 60.537859 63.38151 60.46843 63.667799 60.427734 63.822266 A 1.0001 1.0001 0 0 0 60.394531 64.078125 L 60.394531 65.294922 C 60.364571 65.386112 60.334277 65.478228 60.304688 65.566406 A 1.0001 1.0001 0 0 0 60.253906 65.884766 L 60.253906 66.986328 C 60.12415 67.586824 59.988728 68.311506 59.880859 68.792969 C 59.67906 69.693664 59.964329 70.422221 60.09375 70.880859 C 60.223173 71.339498 60.255057 71.441178 60.121094 71.685547 A 1.0001 1.0001 0 0 0 59.998047 72.166016 C 59.998047 72.299012 59.995757 72.344866 59.994141 72.386719 C 59.954903 72.441007 59.894549 72.528102 59.792969 72.667969 A 1.0001 1.0001 0 0 0 59.601562 73.255859 C 59.601563 73.703399 59.543189 74.533013 59.511719 75.339844 C 59.480249 76.146675 59.416399 76.860251 59.646484 77.597656 A 1.0001 1.0001 0 0 0 59.648438 77.597656 C 59.793005 78.060275 59.966095 78.239304 60.201172 78.564453 C 60.436249 78.889602 60.723298 79.249442 61.021484 79.601562 C 61.319671 79.953684 61.627609 80.295475 61.908203 80.578125 C 62.188797 80.860775 62.303671 81.057709 62.792969 81.279297 A 1.0001 1.0001 0 0 0 62.794922 81.28125 C 63.501497 81.600019 64.084768 81.710619 64.394531 81.833984 C 61.900546 82.24676 60.267277 81.063271 58.089844 81.03125 A 1.0001 1.0001 0 0 0 57.435547 81.263672 C 57.130731 81.227212 56.941897 81.203442 56.726562 81.152344 C 56.754472 80.958878 56.77926 80.777168 56.8125 80.566406 C 56.86711 80.220085 56.926966 79.87068 56.978516 79.591797 C 57.021396 79.359825 57.05601 79.221772 57.0625 79.185547 C 57.165963 79.021047 57.269301 78.855764 57.373047 78.689453 A 1.0001 1.0001 0 0 0 57.470703 78.482422 C 57.565193 78.204886 57.551184 78.09572 57.558594 77.933594 C 57.565994 77.771468 57.5664 77.597923 57.5625 77.404297 C 57.5547 77.017045 57.530973 76.55752 57.501953 76.087891 C 57.443913 75.148632 57.365611 74.137495 57.355469 73.800781 A 1.0001 1.0001 0 0 0 56.951172 73.027344 C 56.949572 73.026144 56.724325 72.690354 56.619141 72.197266 C 56.513957 71.704177 56.476562 71.108166 56.476562 70.703125 A 1.0001 1.0001 0 0 0 56.435547 70.417969 C 56.285821 69.91794 56.265031 69.138791 56.220703 68.191406 C 56.186551 67.455464 56.071787 67.052139 56.074219 66.957031 C 56.086285 66.943272 56.084801 66.941308 56.115234 66.912109 C 56.230019 66.801982 56.515311 66.605821 56.679688 66.119141 A 1.0001 1.0001 0 0 0 56.732422 65.800781 L 56.732422 64.822266 C 56.823563 64.285644 56.876591 63.795491 56.769531 63.28125 C 56.654201 62.727258 56.333731 62.233249 55.933594 61.828125 A 1.0001 1.0001 0 0 0 55.210938 61.53125 C 54.389693 61.54196 54.033511 61.515324 53.972656 61.490234 C 53.911806 61.465144 53.767179 61.35944 53.349609 60.703125 A 1.0001 1.0001 0 0 0 53.347656 60.703125 C 53.221745 60.505331 52.581317 59.480385 51.951172 58.505859 C 51.636099 58.018597 51.320951 57.54097 51.064453 57.167969 C 50.936204 56.981468 50.824321 56.822455 50.722656 56.689453 C 50.671826 56.622953 50.624816 56.565087 50.566406 56.5 C 50.507996 56.43491 50.558406 56.371866 50.166016 56.197266 A 1.0001 1.0001 0 0 0 50.164062 56.195312 C 49.205123 55.771333 48.861672 55.608208 48.851562 55.599609 C 48.841453 55.591009 48.738818 55.410343 48.3125 54.644531 A 1.0001 1.0001 0 0 0 47.408203 54.130859 C 47.218425 54.136459 47.215543 54.154343 47.177734 54.164062 C 47.139924 54.173763 47.111264 54.182206 47.083984 54.191406 C 47.029434 54.209816 46.978036 54.230569 46.921875 54.255859 C 46.809552 54.306449 46.680783 54.375963 46.539062 54.472656 C 46.255621 54.666043 45.923715 54.971411 45.628906 55.417969 C 45.169113 56.114521 44.740906 57.170707 44.308594 58.291016 C 43.876281 59.411325 43.492636 60.523406 43.306641 61.158203 C 43.158713 61.663037 43.172833 62.091961 43.162109 62.392578 C 43.152856 62.65207 43.124904 62.749528 43.109375 62.798828 C 43.08386 62.819074 43.055318 62.844032 42.982422 62.882812 C 42.796157 62.981902 42.441387 62.981332 42.087891 63.626953 C 41.714132 64.309048 41.600673 64.736009 41.583984 64.769531 C 41.567294 64.803051 41.579584 64.830421 40.990234 65.228516 A 1.0001 1.0001 0 0 0 40.753906 65.449219 C 40.270689 66.080622 40.303506 66.534753 40.275391 66.65625 C 40.201581 66.761099 40.126734 66.866337 40.050781 66.974609 A 1.0001 1.0001 0 0 0 39.960938 67.130859 C 39.649636 67.806574 39.837634 68.290309 39.919922 68.634766 C 39.956122 68.786302 39.985736 68.898585 40.003906 68.978516 C 39.807481 69.636367 39.559093 70.315572 39.294922 70.949219 C 38.942274 71.797297 38.818923 72.66706 38.695312 73.392578 C 38.588876 74.017299 38.460532 74.412908 38.367188 74.626953 C 38.082192 74.615543 37.601512 74.563043 37.066406 74.912109 A 1.0001 1.0001 0 0 0 36.619141 75.646484 C 36.648741 75.363817 36.602094 75.672284 36.521484 75.890625 C 36.440874 76.108963 36.328713 76.396653 36.210938 76.693359 C 35.975384 77.286773 35.733333 77.863021 35.609375 78.271484 A 1.0001 1.0001 0 0 0 35.566406 78.560547 L 35.566406 81.6875 A 1.0001 1.0001 0 0 0 35.609375 81.976562 C 35.737424 82.398324 35.905465 82.671928 35.984375 82.863281 C 35.989575 82.875811 35.983739 82.873356 35.988281 82.884766 C 35.836304 82.919346 35.690971 82.957682 35.449219 82.976562 C 34.760727 83.030333 33.85666 82.982658 33.279297 82.898438 A 1.0001 1.0001 0 0 0 33.277344 82.898438 C 33.061622 82.867028 33.098085 82.855273 33.072266 82.814453 C 33.046446 82.773623 32.991304 82.612712 32.996094 82.351562 C 32.994494 82.437862 33.092025 81.796284 33.257812 81.128906 C 33.423603 80.461529 33.645813 79.635724 33.865234 78.822266 C 34.084656 78.008807 34.300913 77.209651 34.458984 76.574219 C 34.538024 76.256502 34.601484 75.980745 34.646484 75.75 C 34.668984 75.634628 34.686959 75.531598 34.699219 75.421875 C 34.711489 75.312152 34.769052 75.260024 34.669922 74.90625 A 1.0001 1.0001 0 0 0 34.458984 74.517578 C 34.242168 74.270489 34.2033 74.126088 34.193359 73.947266 C 34.183459 73.768443 34.233959 73.52485 34.363281 73.216797 C 34.621923 72.60069 35.192098 71.843969 35.527344 70.892578 C 35.722201 70.339962 35.731387 69.840044 35.757812 69.427734 C 35.783862 69.021237 35.833642 68.710548 35.875 68.605469 C 36.328121 67.767997 36.780606 66.93075 37.234375 66.09375 C 37.622056 65.686201 37.874598 65.308841 37.974609 65.015625 C 38.088912 64.680511 38.037949 64.706357 38.205078 64.441406 C 38.367556 64.183887 38.630812 63.885156 38.847656 63.396484 C 39.064501 62.907813 39.142195 62.220787 38.943359 61.535156 C 38.740779 60.83603 38.848769 59.752791 39.09375 58.566406 C 39.338734 57.380021 39.69742 56.119192 39.746094 54.884766 A 1.0001 1.0001 0 0 0 39.476562 54.162109 C 39.209538 53.877203 38.977263 53.818548 38.826172 53.765625 C 38.749742 53.738855 38.724228 53.731134 38.673828 53.714844 C 38.643858 53.281213 38.699308 52.581148 38.859375 51.962891 C 38.947535 51.622388 39.052885 51.312957 39.140625 51.117188 C 39.153295 51.088927 39.164971 51.088646 39.181641 51.066406 C 39.330582 51.050726 39.449138 51.072406 39.673828 50.931641 A 1.0001 1.0001 0 0 0 40.142578 50.085938 C 40.142578 49.677248 40.075238 49.197711 39.996094 48.541016 C 39.916954 47.884321 39.820856 47.109623 39.748047 46.367188 C 39.675237 45.624752 39.627854 44.908955 39.638672 44.423828 C 39.640872 44.326008 39.64969 44.303383 39.65625 44.228516 C 39.791395 44.200046 39.851487 44.1816 40.007812 44.15625 C 40.173318 44.12942 40.3378 44.103752 40.490234 44.076172 C 40.642669 44.048592 40.72052 44.064802 41.011719 43.931641 A 1.0001 1.0001 0 0 0 41.59375 42.970703 C 41.5781 42.666887 41.51868 42.453079 41.408203 42.185547 C 41.352963 42.051781 41.287612 41.914032 41.162109 41.751953 C 41.036606 41.589874 40.824103 41.34083 40.375 41.277344 C 40.151555 41.246024 39.589806 41.135917 39.126953 41.033203 C 39.098903 40.965153 39.055794 40.847703 39.027344 40.634766 C 38.960674 40.135701 38.984106 39.359608 39.066406 38.585938 C 39.148706 37.812266 39.281196 37.029779 39.394531 36.447266 C 39.430141 36.264235 39.456958 36.145548 39.486328 36.007812 C 39.630562 36.003312 39.773449 35.9988 39.994141 36 A 1.0001 1.0001 0 0 0 39.996094 36 C 40.329656 36.0016 40.710554 36.01143 41.160156 35.878906 C 41.56715 35.75894 42.031815 35.324768 42.240234 34.794922 C 42.512852 34.305908 42.607238 33.832652 42.625 33.349609 C 42.64595 32.779815 42.630696 32.147176 42.666016 31.429688 C 42.736616 29.994709 42.991944 28.250936 44.070312 26.316406 C 44.403287 25.718654 44.902853 25.119074 45.416016 24.78125 C 45.881911 24.474542 46.2957 24.36823 46.794922 24.496094 C 46.80123 24.523846 46.89273 24.614168 47.154297 24.837891 C 47.415863 25.061614 48.045744 25.196744 48.421875 25.068359 C 48.798006 24.939975 49.033445 24.744545 49.337891 24.474609 A 1.0001 1.0001 0 0 0 49.671875 23.773438 C 49.713915 22.90352 49.361331 22.297801 49.255859 21.978516 C 49.048243 21.351377 48.975133 20.793089 48.998047 20.296875 C 49.069157 18.761155 49.974469 17.738866 51.291016 17.259766 C 51.78472 17.080103 52.333391 16.98855 52.90625 17.001953 z M 59.046875 21.830078 A 1.0001 1.0001 0 0 0 59.033203 22 L 59.033203 22.089844 A 1.0001 1.0001 0 0 0 58.960938 22.15625 C 59.002531 22.048534 59.016914 21.93912 59.046875 21.830078 z M 58.683594 22.699219 A 1.0001 1.0001 0 0 0 58.669922 22.859375 L 58.669922 22.865234 A 1.0001 1.0001 0 0 0 58.558594 22.898438 C 58.605846 22.833351 58.642295 22.765859 58.683594 22.699219 z M 55.898438 23.117188 C 55.798412 23.159488 55.837028 23.219206 55.767578 23.273438 C 55.783458 23.253408 55.787964 23.205036 55.802734 23.191406 C 55.906135 23.095956 55.926871 23.103608 55.898438 23.117188 z M 55.599609 23.996094 C 55.644964 24.048237 55.681826 24.101972 55.722656 24.144531 C 55.697872 24.122242 55.682768 24.113648 55.658203 24.087891 C 55.609693 24.037031 55.625189 24.036254 55.599609 23.996094 z M 63.640625 27.998047 C 63.254 28.008922 62.851563 28.1035 62.601562 28.3125 C 62.329563 28.5415 62.238281 28.869672 62.363281 29.263672 C 62.325281 29.264672 62.280516 29.267625 62.228516 29.265625 C 62.090516 29.260625 61.964141 29.313203 61.869141 29.408203 C 61.773141 29.502203 61.71875 29.631625 61.71875 29.765625 L 61.71875 30.130859 C 61.71875 30.133859 61.720703 30.135672 61.720703 30.138672 L 61.5 30.138672 C 61.358 30.138672 61.223906 30.199687 61.128906 30.304688 C 61.033906 30.409688 60.987906 30.550406 61.003906 30.691406 C 61.075906 31.373406 61.587563 32.201297 61.976562 32.779297 C 62.068563 32.917297 62.225578 33 62.392578 33 L 62.394531 33 C 63.030531 32.997 63.541578 32.201156 64.142578 31.160156 L 64.294922 30.900391 C 64.354922 30.803391 64.364562 30.693984 64.351562 30.583984 C 64.448562 30.545984 64.53575 30.488437 64.59375 30.398438 C 64.96675 29.812437 65.292078 28.695453 64.580078 28.189453 C 64.397578 28.059953 64.02725 27.987172 63.640625 27.998047 z M 7.5 47 C 4.4686873 47 2 49.468687 2 52.5 L 2 67.5 C 2 70.531313 4.4686873 73 7.5 73 L 23.5 73 C 26.531313 73 29 70.531313 29 67.5 A 0.50005 0.50005 0 0 0 28.5 67 L 10 67 L 10 53 L 28.5 53 A 0.50005 0.50005 0 0 0 29 52.5 C 29 49.468687 26.531313 47 23.5 47 L 7.5 47 z M 75.5 47 C 72.468687 47 70 49.468687 70 52.5 L 70 57.5 C 70 60.531313 72.468687 63 75.5 63 L 91 63 L 91 67 L 70.5 67 A 0.50005 0.50005 0 0 0 70 67.5 C 70 70.531313 72.468687 73 75.5 73 L 92.5 73 C 95.531313 73 98 70.531313 98 67.5 L 98 62.5 C 98 59.468687 95.531313 57 92.5 57 L 77 57 L 77 53 L 96.5 53 A 0.50005 0.50005 0 0 0 97 52.5 C 97 49.468687 94.531313 47 91.5 47 L 75.5 47 z M 7.5 48 L 23.5 48 C 25.813123 48 27.639581 49.757831 27.898438 52 L 9.5 52 A 0.50005 0.50005 0 0 0 9 52.5 L 9 67.5 A 0.50005 0.50005 0 0 0 9.5 68 L 27.898438 68 C 27.639582 70.242169 25.813123 72 23.5 72 L 7.5 72 C 5.0093127 72 3 69.990687 3 67.5 L 3 52.5 C 3 50.009313 5.0093127 48 7.5 48 z M 75.5 48 L 91.5 48 C 93.813123 48 95.639582 49.757831 95.898438 52 L 76.5 52 A 0.50005 0.50005 0 0 0 76 52.5 L 76 57.5 A 0.50005 0.50005 0 0 0 76.5 58 L 92.5 58 C 94.990687 58 97 60.009313 97 62.5 L 97 67.5 C 97 69.990687 94.990687 72 92.5 72 L 75.5 72 C 73.186877 72 71.360418 70.242169 71.101562 68 L 91.5 68 A 0.50005 0.50005 0 0 0 92 67.5 L 92 62.5 A 0.50005 0.50005 0 0 0 91.5 62 L 75.5 62 C 73.009313 62 71 59.990687 71 57.5 L 71 52.5 C 71 50.009313 73.009313 48 75.5 48 z M 32.724609 75.296875 C 32.827408 75.474333 32.813329 75.674391 32.955078 75.835938 L 32.744141 75.447266 C 32.691871 75.260718 32.716809 75.309178 32.724609 75.296875 z"/></svg>