<svg fill="#000000" xmlns="http://www.w3.org/2000/svg"  viewBox="0 0 64 64" width="64px" height="64px"><path d="M 32 4 C 24.203347 4 17.456156 8.4877292 14.158203 15.007812 A 1.0001 1.0001 0 0 0 14.044922 14.998047 A 1.0001 1.0001 0 0 0 13.876953 15.007812 C 11.64214 15.286421 9.855254 16.443343 8.703125 18.078125 C 7.550996 19.712907 7 21.79219 7 24 L 7 27 C 5.3550302 27 4 28.35503 4 30 L 4 38 C 4 40.749516 6.2504839 43 9 43 L 12.691406 43 C 12.718021 43.045773 12.740275 43.093166 12.767578 43.138672 C 14.006911 45.204226 16.1 47 19 47 C 19.983333 47 20.59711 47.340756 21.146484 47.951172 C 21.695858 48.561587 22.125172 49.484605 22.412109 50.517578 C 22.985984 52.583525 23 55 23 56 C 23 56.583333 23.324717 57.096384 23.685547 57.412109 C 24.046376 57.727835 24.45503 57.925519 24.898438 58.091797 C 25.785252 58.424353 26.834291 58.612099 27.875 58.742188 C 29.956418 59.002364 32 59 32 59 C 32 59 34.043582 59.0024 36.125 58.742188 C 37.165709 58.612099 38.214748 58.424353 39.101562 58.091797 C 39.54497 57.925519 39.953624 57.727835 40.314453 57.412109 C 40.675283 57.096384 41 56.583333 41 56 C 41 55 41.01402 52.583525 41.587891 50.517578 C 41.874828 49.484605 42.304142 48.561587 42.853516 47.951172 C 43.40289 47.340756 44.016667 47 45 47 C 47.9 47 49.993089 45.204226 51.232422 43.138672 C 51.259725 43.093166 51.281979 43.045773 51.308594 43 L 55 43 C 57.749516 43 60 40.749516 60 38 L 60 30 C 60 28.35503 58.64497 27 57 27 L 57 24 C 57 21.79219 56.449004 19.712907 55.296875 18.078125 C 54.144746 16.443343 52.35786 15.286457 50.123047 15.007812 A 1.0001 1.0001 0 0 0 50.023438 14.998047 A 1.0001 1.0001 0 0 0 49.841797 15.005859 C 46.543553 8.4866269 39.796028 4 32 4 z M 32 6 C 41.952513 6 50 14.047487 50 24 L 50 29.222656 C 49.613726 28.626242 49.222912 28.031633 48.832031 27.445312 C 47.116493 24.872006 47 20 47 18 A 1.0001 1.0001 0 0 0 45.486328 17.142578 C 40.788973 19.960991 35 20 32 20 C 29 20 23.211027 19.960991 18.513672 17.142578 A 1.0001 1.0001 0 0 0 18.041016 17 A 1.0001 1.0001 0 0 0 17 18 C 17 20 16.883507 24.872006 15.167969 27.445312 C 14.777088 28.031633 14.386274 28.626242 14 29.222656 L 14 24 C 14 14.047487 22.047487 6 32 6 z M 31 7.5566406 C 30.448 7.5566406 30 8.0046406 30 8.5566406 C 30 9.1086406 30.448 9.5566406 31 9.5566406 L 33 9.5566406 C 33.552 9.5566406 34 9.1086406 34 8.5566406 C 34 8.0046406 33.552 7.5566406 33 7.5566406 L 31 7.5566406 z M 31 12 C 30.448 12 30 12.448 30 13 C 30 13.552 30.448 14 31 14 L 33 14 C 33.552 14 34 13.552 34 13 C 34 12.448 33.552 12 33 12 L 31 12 z M 31 16.443359 C 30.448 16.443359 30 16.891359 30 17.443359 C 30 17.995359 30.448 18.443359 31 18.443359 L 33 18.443359 C 33.552 18.443359 34 17.995359 34 17.443359 C 34 16.891359 33.552 16.443359 33 16.443359 L 31 16.443359 z M 13.222656 17.177734 C 12.44587 19.310279 12 21.601135 12 24 L 12 32.792969 C 11.400681 34.147688 11 35.54258 11 37 C 11 38.145073 11.240938 39.567745 11.761719 41 L 9 41 C 7.3315161 41 6 39.668484 6 38 L 6 30 C 6 29.43497 6.4349698 29 7 29 L 8 29 A 1.0001 1.0001 0 0 0 9 28 L 9 24 C 9 22.12781 9.4765192 20.452687 10.337891 19.230469 C 11.038702 18.236072 11.977496 17.525276 13.222656 17.177734 z M 50.777344 17.177734 C 52.022504 17.525276 52.961298 18.236072 53.662109 19.230469 C 54.52348 20.452687 55 22.12781 55 24 L 55 28 A 1.0001 1.0001 0 0 0 56 29 L 57 29 C 57.56503 29 58 29.43497 58 30 L 58 38 C 58 39.668484 56.668484 41 55 41 L 52.238281 41 C 52.759062 39.567745 53 38.145073 53 37 C 53 35.54258 52.599319 34.147688 52 32.792969 L 52 24 C 52 21.601135 51.55413 19.310279 50.777344 17.177734 z M 18.927734 19.505859 C 23.879264 21.911162 29.26489 22 32 22 C 34.73511 22 40.120736 21.91116 45.072266 19.505859 C 45.094526 21.921482 45.246221 25.672066 47.167969 28.554688 C 49.167969 31.554688 51 34.444444 51 37 C 51 38.277778 50.528246 40.426882 49.517578 42.111328 C 48.506911 43.795774 47.1 45 45 45 C 43.483333 45 42.22211 45.659244 41.365234 46.611328 C 40.508358 47.563413 40.000172 48.765395 39.662109 49.982422 C 39.001203 52.361689 38.999732 54.861889 39 55.908203 C 39 55.908203 38.998047 55.908203 38.998047 55.908203 C 38.921377 55.975293 38.70503 56.105731 38.398438 56.220703 C 37.7853 56.45065 36.834291 56.637902 35.875 56.757812 C 33.956418 56.997636 32 57 32 57 C 32 57 30.043582 56.997636 28.125 56.757812 C 27.165709 56.637901 26.214747 56.450647 25.601562 56.220703 C 25.29497 56.105731 25.078624 55.97529 25.001953 55.908203 C 25.001953 55.908203 25 55.908203 25 55.908203 C 25.000268 54.861889 24.998797 52.361689 24.337891 49.982422 C 23.999828 48.765395 23.491642 47.563413 22.634766 46.611328 C 21.77789 45.659244 20.516667 45 19 45 C 16.9 45 15.493089 43.795774 14.482422 42.111328 C 13.471754 40.426882 13 38.277778 13 37 C 13 34.444444 14.832031 31.554687 16.832031 28.554688 C 18.753779 25.672065 18.905471 21.921482 18.927734 19.505859 z M 22 30 C 21 30 17 29.999922 17 34.544922 C 17 39.090922 21 40 23 40 C 25 40 29 39.090281 29 36.363281 C 29 31.817281 25 30 22 30 z M 42 30 C 39 30 35 31.817281 35 36.363281 C 35 39.090281 39 40 41 40 C 43 40 47 39.090922 47 34.544922 C 47 29.999922 43 30 42 30 z M 22 32 C 23.729 32 27 32.911281 27 36.363281 C 27 37.205281 24.747 38 23 38 C 21.797 38 19 37.662922 19 34.544922 C 19 32.973922 19.502 32 22 32 z M 42 32 C 44.498 32 45 32.973922 45 34.544922 C 45 37.662922 42.203 38 41 38 C 39.253 38 37 37.205281 37 36.363281 C 37 32.911281 40.271 32 42 32 z M 32 39 C 31.59 39 31.220312 39.250859 31.070312 39.630859 L 29.070312 44.089844 C 29.030313 44.189844 29.009766 44.300391 29.009766 44.400391 C 28.999766 44.430391 29 44.46 29 44.5 C 29 44.54 28.999766 44.569609 29.009766 44.599609 C 29.059766 44.829609 29.26 45 29.5 45 L 30 45 C 31.259 44.37 32.741 44.37 34 45 L 34.5 45 C 34.74 45 34.940234 44.829609 34.990234 44.599609 C 35.000234 44.569609 35 44.54 35 44.5 C 35 44.46 35.000234 44.430391 34.990234 44.400391 C 34.990234 44.300391 34.969687 44.189844 34.929688 44.089844 L 32.929688 39.630859 C 32.779688 39.250859 32.41 39 32 39 z M 27.802734 50.701172 C 27.252734 50.620172 26.749828 51.007688 26.673828 51.554688 L 26.396484 53.533203 C 26.320484 54.080203 26.701047 54.586109 27.248047 54.662109 C 27.295047 54.669109 27.342672 54.673828 27.388672 54.673828 C 27.878672 54.673828 28.306953 54.311547 28.376953 53.810547 L 28.654297 51.830078 C 28.730297 51.283078 28.349734 50.777172 27.802734 50.701172 z M 36.197266 50.703125 C 35.650266 50.779125 35.268703 51.285031 35.345703 51.832031 L 35.623047 53.8125 C 35.693047 54.3125 36.120328 54.673828 36.611328 54.673828 C 36.658328 54.673828 36.704953 54.670063 36.751953 54.664062 C 37.298953 54.588062 37.680516 54.082156 37.603516 53.535156 L 37.326172 51.554688 C 37.249172 51.006688 36.744266 50.621125 36.197266 50.703125 z M 32 51 C 31.448 51 31 51.448 31 52 L 31 54 C 31 54.552 31.448 55 32 55 C 32.552 55 33 54.552 33 54 L 33 52 C 33 51.448 32.552 51 32 51 z"/></svg>