<?xml version="1.0" encoding="UTF-8" standalone="no"?>
<svg
   xmlns:dc="http://purl.org/dc/elements/1.1/"
   xmlns:cc="http://creativecommons.org/ns#"
   xmlns:rdf="http://www.w3.org/1999/02/22-rdf-syntax-ns#"
   xmlns:svg="http://www.w3.org/2000/svg"
   xmlns="http://www.w3.org/2000/svg"
   xmlns:sodipodi="http://sodipodi.sourceforge.net/DTD/sodipodi-0.dtd"
   xmlns:inkscape="http://www.inkscape.org/namespaces/inkscape"
   class="league"
   viewBox="0 0 700 700"
   version="1.1"
   id="svg36"
   sodipodi:docname="lol-logo.svg"
   width="700"
   height="700"
   style="fill:none"
   inkscape:version="0.92.4 (5da689c313, 2019-01-14)"
   inkscape:export-filename="G:\Users\suitedoalex\sites\lol-league-of-Legends-logo-0.png"
   inkscape:export-xdpi="561.73712"
   inkscape:export-ydpi="561.73712">
  <metadata
     id="metadata40">
    <rdf:RDF>
      <cc:Work
         rdf:about="">
        <dc:format>image/svg+xml</dc:format>
        <dc:type
           rdf:resource="http://purl.org/dc/dcmitype/StillImage" />
        <dc:title></dc:title>
      </cc:Work>
    </rdf:RDF>
  </metadata>
  <sodipodi:namedview
     pagecolor="#ffffff"
     bordercolor="#666666"
     borderopacity="1"
     objecttolerance="10"
     gridtolerance="10"
     guidetolerance="10"
     inkscape:pageopacity="0"
     inkscape:pageshadow="2"
     inkscape:window-width="1600"
     inkscape:window-height="837"
     id="namedview38"
     showgrid="false"
     inkscape:zoom="0.24558824"
     inkscape:cx="-110.95677"
     inkscape:cy="396.66985"
     inkscape:window-x="-8"
     inkscape:window-y="-8"
     inkscape:window-maximized="1"
     inkscape:current-layer="svg36" />
  <g
     clip-path="url(#clip0)"
     id="g32"
     transform="matrix(6.2180342,0,0,6.2180342,85.726707,250.50641)"
     inkscape:export-filename="G:\Users\suitedoalex\sites\lol-league-of-Legends-logo-6.png"
     inkscape:export-xdpi="72.652054"
     inkscape:export-ydpi="72.652054">
    <path
       d="M 59.7261,17.2695 V 31.749 H 56.5229 L 49.6035,22.34 v 9.409 H 46.5347 V 18.6228 l -0.7012,-1.3533 h 3.9675 l 6.8563,9.5392 v -9.5392 z"
       id="path2"
       inkscape:connector-curvature="0"
       style="fill:#c28f2c" />
    <path
       d="m 27.8345,31.9991 c 1.0564,0.0057 2.0322,-0.1724 2.9274,-0.5321 0.8963,-0.3598 1.6688,-0.8588 2.3209,-1.4949 0.6509,-0.6361 1.1616,-1.391 1.532,-2.2623 0.2665,-0.627 0.4383,-1.2893 0.5166,-1.986 0.0304,-0.2706 0.0829,-1.3624 0.0268,-2.0213 h -7.2933 l -1.2984,2.6106 h 5.2039 c -0.201,0.8245 -0.6556,1.504 -1.3614,2.0156 -0.7071,0.5128 -1.5531,0.7663 -2.5383,0.7617 -0.6334,-0.0034 -1.2247,-0.1267 -1.7728,-0.37 -0.5481,-0.2432 -1.0249,-0.5721 -1.4304,-0.9866 -0.4067,-0.4146 -0.7234,-0.9011 -0.9536,-1.4595 -0.2291,-0.5585 -0.3424,-1.1546 -0.3389,-1.7873 0.0035,-0.6326 0.1227,-1.2276 0.3576,-1.7838 0.2349,-0.5561 0.5574,-1.0392 0.9688,-1.4503 0.4102,-0.4111 0.887,-0.7309 1.4304,-0.9627 0.5434,-0.2307 1.1312,-0.3449 1.7658,-0.3426 0.8589,0.0046 1.6174,0.1941 2.2776,0.5687 0.6603,0.3746 1.171,0.9136 1.5333,1.6171 l 2.8795,-1.3476 c -0.5995,-1.1717 -1.4854,-2.091 -2.6575,-2.7579 -1.1721,-0.6658 -2.5044,-1.0027 -3.9967,-1.0107 -1.0564,-0.0057 -2.0568,0.1862 -3.001,0.5733 -0.9454,0.3871 -1.7682,0.9193 -2.4682,1.5977 -0.7,0.6772 -1.2574,1.4697 -1.6699,2.3753 -0.4137,0.9056 -0.6217,1.8752 -0.6276,2.9064 -0.0058,1.0312 0.1905,2.0031 0.5867,2.9133 0.3973,0.9101 0.9384,1.7072 1.6244,2.3913 0.6859,0.6841 1.497,1.2254 2.4307,1.6217 0.9326,0.3962 1.9423,0.5972 3.0256,0.6029 z"
       id="path4"
       inkscape:connector-curvature="0"
       style="fill:#c28f2c" />
    <path
       d="M 3.90672,17.2686 H 0 l 0.737403,1.4971 V 30.2542 L 0,31.7503 H 8.9657 L 9.77906,28.917 H 3.90672 Z"
       id="path6"
       inkscape:connector-curvature="0"
       style="fill:#c28f2c" />
    <path
       d="m 10.8613,31.7503 h 8.739 v -2.8322 h -5.558 v -3.177 h 4.2971 l 0.7783,-2.7226 h -5.0754 v -2.9292 h 5.558 v -2.8207 h -8.739 z"
       id="path8"
       inkscape:connector-curvature="0"
       style="fill:#c28f2c" />
    <path
       d="m 36.2681,31.7503 h 8.7389 v -2.8322 h -5.5579 v -3.177 h 4.2982 l 0.7771,-2.7226 h -5.0753 v -2.9292 h 5.5579 v -2.8207 h -8.7389 z"
       id="path10"
       inkscape:connector-curvature="0"
       style="fill:#c28f2c" />
    <path
       d="m 41.8662,14.9822 c 1.0565,0.0057 2.0323,-0.1724 2.9274,-0.5322 0.8964,-0.3597 1.6688,-0.8588 2.3209,-1.4949 0.6509,-0.636 1.1616,-1.3909 1.5321,-2.2623 0.2664,-0.6269 0.4382,-1.28928 0.5165,-1.9859 0.0304,-0.27065 0.083,-1.3624 0.0269,-2.02134 h -7.2934 l -1.2983,2.60947 h 5.2039 c -0.2011,0.82457 -0.6556,1.50397 -1.3615,2.01567 -0.707,0.5127 -1.5531,0.7662 -2.5383,0.7617 -0.6334,-0.0034 -1.2247,-0.1268 -1.7728,-0.37 -0.548,-0.2433 -1.0248,-0.5722 -1.4304,-0.9867 -0.4066,-0.4146 -0.7233,-0.90106 -0.9536,-1.45949 -0.229,-0.55844 -0.3424,-1.15457 -0.3389,-1.78724 0.0035,-0.63266 0.1227,-1.22765 0.3576,-1.7838 0.2349,-0.55616 0.5575,-1.03922 0.9688,-1.45034 0.4102,-0.41112 0.887,-0.73088 1.4304,-0.96271 0.5434,-0.23068 1.1313,-0.34488 1.7658,-0.3426 0.859,0.00457 1.6174,0.19414 2.2777,0.56872 0.6603,0.37457 1.1709,0.9136 1.5332,1.61707 L 48.6197,3.76775 C 48.0202,2.59606 47.1344,1.67675 45.9623,1.00982 44.7901,0.344031 43.4579,0.00714122 41.9656,-8.52784e-4 40.9091,-0.00656279 39.9088,0.185293 38.9645,0.572432 38.0191,0.95957 37.1964,1.49174 36.4964,2.17009 c -0.7,0.67721 -1.2575,1.46976 -1.67,2.37536 -0.4137,0.90561 -0.6217,1.87517 -0.6275,2.90639 -0.0059,1.03123 0.1904,2.00307 0.5866,2.91326 0.3973,0.9102 0.9384,1.7073 1.6244,2.3913 0.686,0.6841 1.497,1.2254 2.4307,1.6217 0.9326,0.3985 1.9411,0.5995 3.0256,0.6041 z"
       id="path12"
       inkscape:connector-curvature="0"
       style="fill:#c28f2c" />
    <path
       d="M 3.90672,0.252441 H 0 L 0.737403,1.7496 V 13.2381 L 0,14.7342 H 8.9657 L 9.77906,11.8997 H 3.90672 Z"
       id="path14"
       inkscape:connector-curvature="0"
       style="fill:#c28f2c" />
    <path
       d="m 10.8613,14.7342 h 8.739 v -2.8334 h -5.558 V 8.72494 h 4.2971 L 19.1177,6.00241 H 14.0423 V 3.07318 h 5.558 V 0.252441 h -8.739 z"
       id="path16"
       inkscape:connector-curvature="0"
       style="fill:#c28f2c" />
    <path
       d="m 63.5688,14.7342 h 8.7379 V 11.9008 H 66.7498 V 8.72494 h 4.2971 L 71.824,6.00241 H 66.7498 V 3.07318 h 5.5569 V 0.252441 h -8.7379 z"
       id="path18"
       inkscape:connector-curvature="0"
       style="fill:#c28f2c" />
    <path
       d="M 29.397,0.252441 H 24.8779 L 25.8338,2.09906 20.6147,14.7353 h 3.2512 L 24.9737,11.91 h 5.8782 l 1.1394,2.8253 h 3.3142 z m -3.3376,8.888189 1.9083,-4.86606 1.8336,4.86606 z"
       id="path20"
       inkscape:connector-curvature="0"
       style="fill:#c28f2c" />
    <path
       d="m 80.6094,4.23486 v 6.51284 h 1.6372 V 8.54591 h 1.6899 l 0.409,-1.43206 H 82.2466 V 5.71033 H 84.647 V 4.23486 Z"
       id="path22"
       inkscape:connector-curvature="0"
       style="fill:#c28f2c" />
    <path
       d="m 76.5625,4.10547 c -1.9072,0 -3.458,1.51886 -3.458,3.38603 0,1.86717 1.5508,3.386 3.458,3.386 1.9072,0 3.4579,-1.51883 3.4579,-3.386 0,-1.86717 -1.5519,-3.38603 -3.4579,-3.38603 z m 0,5.20067 c -1.0202,0 -1.85,-0.81425 -1.85,-1.81464 0,-1.00039 0.8298,-1.81464 1.85,-1.81464 1.0202,0 1.8499,0.81425 1.8499,1.81464 0,1.00039 -0.8297,1.81464 -1.8499,1.81464 z"
       id="path24"
       inkscape:connector-curvature="0"
       style="fill:#c28f2c" />
    <path
       d="m 56.2401,14.9854 c -0.9302,0 -1.7623,-0.1416 -2.495,-0.4237 C 53.0124,14.2796 52.3918,13.8765 51.8847,13.3523 51.3775,12.8293 50.986,12.1955 50.7114,11.4509 50.4367,10.7075 50.2988,9.88065 50.2988,8.97161 V 0.252441 h 3.2137 V 8.80717 c 0,0.97869 0.2326,1.74953 0.6977,2.31483 0.4651,0.5653 1.1418,0.8474 2.0299,0.8474 0.8882,0 1.5648,-0.2821 2.0299,-0.8474 0.4651,-0.5653 0.6977,-1.33614 0.6977,-2.31483 V 0.252441 h 3.2137 V 8.97276 c 0,0.90903 -0.1379,1.73584 -0.4125,2.47924 -0.2746,0.7435 -0.6661,1.3773 -1.1733,1.9015 -0.5072,0.5241 -1.1277,0.9261 -1.8605,1.2093 -0.7339,0.281 -1.5648,0.4226 -2.495,0.4226 z"
       id="path26"
       inkscape:connector-curvature="0"
       style="fill:#c28f2c" />
    <path
       d="m 80.8372,23.1624 -2.0007,-0.3758 c -0.8998,-0.169 -1.3953,-0.6623 -1.3953,-1.3898 0,-0.9912 1.0401,-1.5839 2.0451,-1.5839 0.3424,0 2.0462,0.0868 2.3968,1.7472 l 2.7568,-1.3155 c -0.4067,-1.1809 -1.6244,-3.2285 -5.1735,-3.2285 -2.8619,0 -5.191,2.0545 -5.191,4.5794 0,2.1413 1.4654,3.7115 3.9184,4.2003 l 2.0018,0.3952 c 0.9887,0.1929 1.5789,0.7423 1.5789,1.4686 0,0.9398 -0.8146,1.5108 -2.1258,1.5245 -1.5905,0.016 -2.876,-1.1397 -3.0746,-2.2771 l -2.6493,1.4446 c 0.6077,1.9334 2.4798,3.651 5.7041,3.651 2.0287,0 3.2815,-0.7663 3.9745,-1.4092 0.8893,-0.8234 1.3988,-1.9574 1.3988,-3.1108 -0.0023,-2.179 -1.5975,-3.8337 -4.165,-4.3202 z"
       id="path28"
       inkscape:connector-curvature="0"
       style="fill:#c28f2c" />
    <path
       d="m 73.0452,21.6891 c -0.3938,-0.8805 -0.9314,-1.6434 -1.6127,-2.2909 -0.6824,-0.6463 -1.4806,-1.1557 -2.3945,-1.528 -0.915,-0.3723 -2.2169,-0.6041 -2.9122,-0.6041 h -5.0111 v 14.4806 h 5.0018 c 1.0272,0 1.9983,-0.1816 2.9133,-0.5516 0.9151,-0.3711 1.7132,-0.8793 2.3969,-1.5246 0.6825,-0.6463 1.2224,-1.4081 1.6162,-2.2885 0.395,-0.8794 0.5925,-1.8284 0.5937,-2.8459 -0.0012,-1.0175 -0.1975,-1.9665 -0.5914,-2.847 z m -2.9998,4.536 c -0.2256,0.523 -0.5317,0.9764 -0.9186,1.3613 -0.3879,0.3848 -0.8484,0.6909 -1.3836,0.917 -0.5352,0.2261 -1.1055,0.3392 -1.7097,0.3392 h -1.7518 v -8.6221 h 1.7576 c 0.6054,0 1.1745,0.1142 1.7097,0.3414 0.5341,0.2273 0.9945,0.5333 1.3825,0.9182 0.3868,0.386 0.6918,0.8428 0.9174,1.3727 0.2244,0.5299 0.3377,1.0906 0.3365,1.681 -0.0011,0.6064 -0.1145,1.1694 -0.34,1.6913 z"
       id="path30"
       inkscape:connector-curvature="0"
       style="fill:#c28f2c" />
  </g>
  <defs
     id="defs34">
    <clippath
       id="clip0">
      <rect
         width="85"
         height="32"
         fill="white" />
    </clippath>
  </defs>
  <g
     clip-path="url(#clip0)"
     id="g10"
     transform="matrix(14.051541,0,0,14.051541,139.21073,768.9238)"
     inkscape:export-filename="G:\Users\suitedoalex\sites\lol-league-of-Legends-logo-5.png"
     inkscape:export-xdpi="91.08622"
     inkscape:export-ydpi="91.08622">
    <path
       style="fill:#c28f2c"
       inkscape:connector-curvature="0"
       d="M 1.80644,9.75049 C 0.655032,11.8373 0,14.2271 0,16.7683 c 0,2.5412 0.655032,4.9332 1.80644,7.02 z"
       id="path2-8" />
    <path
       style="fill:#c28f2c"
       inkscape:connector-curvature="0"
       d="m 15,2.02222 c -1.2171,0 -2.398,0.14699 -3.5312,0.41425 V 4.75718 C 12.5907,4.44093 13.7738,4.26721 15,4.26721 c 7.0218,0 12.7153,5.57906 12.7153,12.46329 0,3.1002 -1.1582,5.9354 -3.0689,8.1158 l -0.3626,1.2717 -0.8024,2.8151 c 3.937,-2.657 6.5209,-7.1136 6.5209,-12.1626 C 30,8.62355 23.2843,2.02222 15,2.02222 Z"
       id="path4-2" />
    <path
       style="fill:#c28f2c"
       inkscape:connector-curvature="0"
       d="m 11.4688,24.4209 h 11.5049 0.2516 c 1.947,-2 3.146,-4.7083 3.146,-7.6904 0,-6.1559 -5.0907,-11.14481 -11.3713,-11.14481 -1.233,0 -2.4184,0.19599 -3.5312,0.55011 z"
       id="path6-5" />
    <path
       style="fill:#c28f2c"
       inkscape:connector-curvature="0"
       d="M 10.1088,0 H 1.55029 L 3.16634,3.29844 V 28.7038 L 1.55029,32 H 21.1922 l 1.7815,-6.2428 H 10.1088 Z"
       id="path8-9" />
  </g>
</svg>
